<?xml version="1.0" encoding="UTF-8"?>
<svg version="1.1" xmlns="http://www.w3.org/2000/svg" width="2400" height="2400">
<path d="M0 0 C2.53635206 0.22836601 5.07360148 0.43991355 7.61181641 0.64648438 C99.35444612 8.14182221 190.23026291 27.46877755 405.49462891 108.22460938 C407.23752197 109.04977051 407.23752197 109.04977051 409.015625 109.89160156 C433.06476075 121.29784868 456.67000573 133.4061912 479.75976562 146.66015625 C482.39520889 148.16773708 485.03883424 149.65966585 487.68603516 151.14648438 C512.80096899 165.28801344 536.86703727 180.90731685 560.734375 197.03527832 C562.32820836 198.11216586 563.92307737 199.18752021 565.51806641 200.26269531 C596.09465637 220.89741017 625.55528209 243.23619304 653.65454102 267.13647461 C657.10602749 270.06744598 660.59681153 272.94175688 664.11962891 275.78710938 C668.88270108 279.6627387 673.4282714 283.73695226 677.94775391 287.89257812 C680.08404639 289.84866189 682.24243548 291.76648635 684.43212891 293.66210938 C688.75570627 297.42327018 692.97421908 301.29647579 697.18530273 305.18237305 C699.15789711 307.0001514 701.13936095 308.8050293 703.13305664 310.59985352 C713.67829587 320.16324061 723.69179813 330.26910849 733.74414062 340.34375 C736.35940742 342.96475068 738.9791924 345.58118231 741.60030174 348.19633865 C743.64748152 350.23988191 745.69224564 352.28582901 747.73631668 354.33248138 C749.16339424 355.76053341 750.59245539 357.18660234 752.02157593 358.61260986 C756.5036966 363.11081353 760.86699911 367.65107146 764.99017334 372.48204041 C767.67901213 375.59644747 770.53970161 378.55146457 773.36962891 381.53710938 C778.25988221 386.73219622 782.89892608 392.03813695 787.35400391 397.61523438 C789.64583355 400.40892453 792.04694703 403.06669715 794.49462891 405.72460938 C799.38969019 411.05092026 803.9564191 416.59401633 808.49462891 422.22460938 C809.9521366 423.99612232 811.41047813 425.76694955 812.86962891 427.53710938 C818.17525555 434.02381465 823.34544073 440.61355958 828.49462891 447.22460938 C829.29642578 448.25199219 830.09822266 449.279375 830.92431641 450.33789062 C837.68992103 459.0666297 844.24485522 467.94701382 850.76269531 476.86181641 C852.3360422 479.00825722 853.91960674 481.14665886 855.50634766 483.28320312 C882.75173441 520.21294779 907.46744874 559.67032786 929.30029297 600.03027344 C930.58632796 602.3930867 931.895093 604.74245551 933.20556641 607.09179688 C949.43332391 636.38137631 964.54229314 666.53812709 977.68914795 697.33825684 C978.54876249 699.35138458 979.41255565 701.3626933 980.27636719 703.37402344 C989.71675485 725.40360568 998.46890373 747.64169131 1006.49462891 770.22460938 C1006.80207031 771.08765686 1007.10951172 771.95070435 1007.42626953 772.83990479 C1023.09462738 816.89623629 1036.11494147 861.63061321 1046.49462891 907.22460938 C1046.6721167 908.00139038 1046.84960449 908.77817139 1047.0324707 909.57849121 C1061.33015622 972.33894834 1070.17936385 1036.80814251 1073.38748169 1101.10479736 C1073.46287019 1102.59629151 1073.54169355 1104.08761404 1073.62301636 1105.57879639 C1074.69174578 1125.45397345 1074.69587607 1145.32718199 1074.68212891 1165.22460938 C1074.68186203 1166.09021484 1074.68159515 1166.95582031 1074.68132019 1167.84765625 C1074.67132208 1193.69113026 1074.50372591 1219.44633928 1072.49462891 1245.22460938 C1072.3588776 1247.02651701 1072.22330654 1248.82843823 1072.08789062 1250.63037109 C1065.03306908 1343.30437191 1048.32087779 1435.27383116 1012.21350098 1545.15649414 C1011.24176818 1547.95206164 1010.288829 1550.75389875 1009.33518982 1553.55567932 C987.43340219 1617.80575859 958.97747417 1680.85303695 924.99462891 1739.61865234 C923.50964496 1742.19852191 922.04589927 1744.78929609 920.58837891 1747.38476562 C908.70439153 1768.4969554 895.83227775 1789.00459628 882.49462891 1809.22460938 C881.82818359 1810.24425781 881.16173828 1811.26390625 880.47509766 1812.31445312 C869.04306203 1829.67421093 856.93183384 1846.57486263 844.49462891 1863.22460938 C843.44367799 1864.63854578 842.39289307 1866.05260558 841.34228516 1867.46679688 C832.71361042 1879.05517171 823.84830782 1890.43888152 814.66259766 1901.59179688 C813.22148518 1903.34190464 811.78653487 1905.09710549 810.35791016 1906.85742188 C805.20524619 1913.20343172 799.92897372 1919.43205133 794.59228516 1925.62304688 C792.56718772 1927.97243914 790.55438161 1930.33136078 788.55322266 1932.70117188 C782.15905895 1940.25626327 775.5362301 1947.54887768 768.74853516 1954.75195312 C766.03167421 1957.63827465 763.37562443 1960.57201918 760.74462891 1963.53710938 C757.00437929 1967.72924788 753.07525366 1971.68992737 749.04931641 1975.60742188 C747.04655354 1977.659182 745.1766937 1979.72883279 743.31103516 1981.90039062 C738.95370711 1986.92355227 734.26788647 1991.59755552 729.55712891 1996.28710938 C728.70183594 1997.14626953 727.84654297 1998.00542969 726.96533203 1998.890625 C722.52845697 2003.32073137 718.02144818 2007.58628919 713.26586914 2011.67163086 C710.71382719 2013.90919652 708.36610739 2016.29598683 705.99462891 2018.72460938 C702.35903755 2022.409499 698.64849924 2025.93196842 694.70947266 2029.29101562 C692.38117851 2031.32365337 690.12286158 2033.41876341 687.86450195 2035.52832031 C682.43650837 2040.59791351 676.90191647 2045.42642617 671.10791016 2050.08007812 C668.49615267 2052.22335893 665.99097589 2054.44841268 663.49462891 2056.72460938 C658.31958714 2061.4291928 652.93395329 2065.83078327 647.49462891 2070.22460938 C646.22841388 2071.25904381 644.96282548 2072.2942456 643.69775391 2073.33007812 C636.03545226 2079.59670317 628.31567842 2085.75982935 620.43261719 2091.74755859 C618.15456862 2093.4837886 615.88527728 2095.23119793 613.61572266 2096.97851562 C603.449322 2104.78937831 593.19062937 2112.40760645 582.65771484 2119.71630859 C580.39902006 2121.29127658 578.15295764 2122.88306347 575.90869141 2124.47851562 C547.10192632 2144.90545118 517.14686414 2163.7019791 486.49462891 2181.22460938 C485.49882813 2181.7953418 484.50302734 2182.36607422 483.47705078 2182.95410156 C467.32897319 2192.18380548 450.91731272 2200.85443301 434.3416748 2209.28320312 C432.51473924 2210.2143595 430.69033126 2211.15028301 428.86669922 2212.08789062 C408.42060985 2222.59370442 387.60815932 2232.13832785 366.49462891 2241.22460938 C365.85029907 2241.50197937 365.20596924 2241.77934937 364.54211426 2242.06512451 C282.27925895 2277.39923512 196.0226452 2302.65821638 -39.50537109 2334.22460938 C-40.62556641 2334.28100586 -41.74576172 2334.33740234 -42.89990234 2334.39550781 C-140.67022498 2339.29562185 -239.52952833 2330.57816127 -384.50537109 2299.22460938 C-385.25351074 2299.03274048 -386.00165039 2298.84087158 -386.77246094 2298.64318848 C-423.47667589 2289.21383845 -459.5511578 2277.90791401 -495.25537109 2265.22070312 C-495.99385788 2264.95931549 -496.73234467 2264.69792786 -497.49320984 2264.42861938 C-502.2522316 2262.72625768 -506.8940402 2260.84930273 -511.46240234 2258.67797852 C-514.36916791 2258.03291833 -515.88850238 2258.89509002 -518.50537109 2260.22460938 C-520.43116495 2261.43438664 -520.43116495 2261.43438664 -522.20458984 2262.82617188 C-522.85621094 2263.31601563 -523.50783203 2263.80585938 -524.17919922 2264.31054688 C-524.84371094 2264.8184375 -525.50822266 2265.32632813 -526.19287109 2265.84960938 C-527.52683891 2266.86693469 -528.86393305 2267.88017781 -530.20458984 2268.88867188 C-530.79071045 2269.33678223 -531.37683105 2269.78489258 -531.98071289 2270.24658203 C-533.50537109 2271.22460938 -533.50537109 2271.22460938 -535.50537109 2271.22460938 C-536.49537109 2263.30460937 -537.48537109 2255.38460937 -538.50537109 2247.22460938 C-540.15537109 2246.89460938 -541.80537109 2246.56460938 -543.50537109 2246.22460938 C-545.56981049 2245.43227355 -547.61413148 2244.58660575 -549.64208984 2243.70507812 C-550.84430176 2243.18437744 -552.04651367 2242.66367676 -553.28515625 2242.12719727 C-554.58796012 2241.55603077 -555.89052524 2240.98431944 -557.19287109 2240.41210938 C-557.86340515 2240.11883759 -558.53393921 2239.8255658 -559.22479248 2239.52340698 C-563.99144747 2237.43830387 -568.74991721 2235.33511313 -573.50537109 2233.22460938 C-574.57513184 2232.75120117 -575.64489258 2232.27779297 -576.74707031 2231.79003906 C-606.5159653 2218.54094965 -636.08460446 2204.06456201 -664.19238281 2187.56689453 C-667.25074546 2185.79204992 -670.34700703 2184.09101764 -673.44799805 2182.39208984 C-683.97501406 2176.62426965 -694.27125013 2170.4954661 -704.50537109 2164.22460938 C-705.21580566 2163.79051758 -705.92624023 2163.35642578 -706.65820312 2162.90917969 C-718.50338522 2155.63832245 -730.06062043 2147.92255573 -741.63037109 2140.22460938 C-742.38697021 2139.72199585 -743.14356934 2139.21938232 -743.9230957 2138.70153809 C-758.2673747 2129.16434186 -772.41296462 2119.35434435 -786.25537109 2109.09960938 C-787.0477417 2108.51397217 -787.8401123 2107.92833496 -788.65649414 2107.32495117 C-795.33819055 2102.37381481 -801.94898733 2097.34057549 -808.50537109 2092.22460938 C-809.04935547 2091.80147461 -809.59333984 2091.37833984 -810.15380859 2090.94238281 C-822.61348621 2081.24594015 -834.91354025 2071.34972791 -846.92578125 2061.10302734 C-850.22143927 2058.2947049 -853.56483392 2055.55794822 -856.94287109 2052.84960938 C-862.6331597 2048.2241701 -867.95036705 2043.2356435 -873.29443359 2038.22070312 C-875.67896594 2035.98546204 -878.0929917 2033.79760658 -880.56787109 2031.66210938 C-888.74605398 2024.58956066 -896.69175698 2017.22382726 -904.21240234 2009.45507812 C-906.12898645 2007.59073482 -908.07974077 2005.85506013 -910.10693359 2004.11523438 C-915.33078017 1999.57763525 -920.18758879 1994.68829224 -925.06787109 1989.78710938 C-925.97472656 1988.88412109 -926.88158203 1987.98113281 -927.81591797 1987.05078125 C-932.3806054 1982.47947353 -936.79454803 1977.84953476 -941.0012207 1972.94702148 C-943.05936492 1970.59022755 -945.26429353 1968.40671121 -947.50537109 1966.22460938 C-951.01130152 1962.75552807 -954.33336373 1959.22181611 -957.53662109 1955.47460938 C-959.58328802 1953.13556146 -961.68974255 1950.86364414 -963.81103516 1948.5925293 C-968.86243909 1943.18356644 -973.66817231 1937.66850102 -978.30224609 1931.89257812 C-980.57464927 1929.140714 -982.9523194 1926.52722794 -985.38037109 1923.91210938 C-989.62334148 1919.3018958 -993.50413772 1914.50533979 -997.33129883 1909.55297852 C-1000.43046226 1905.55421567 -1003.63879845 1901.68005743 -1006.94287109 1897.84960938 C-1012.6626139 1891.18851355 -1017.86639424 1884.17536404 -1023.08837891 1877.12207031 C-1025.16958833 1874.33517168 -1027.30645615 1871.59445317 -1029.44287109 1868.84960938 C-1045.04998157 1848.68453108 -1059.55571449 1827.56159539 -1073.50537109 1806.22460938 C-1074.0897998 1805.33273926 -1074.67422852 1804.44086914 -1075.27636719 1803.52197266 C-1122.55451642 1731.15089313 -1161.10140687 1653.70021876 -1261.19287109 1249.34960938 C-1261.25390015 1248.51043976 -1261.3149292 1247.67127014 -1261.37780762 1246.80667114 C-1261.79773667 1240.94840072 -1262.16996075 1235.08831442 -1262.50537109 1229.22460938 C-1262.5548288 1228.36919556 -1262.6042865 1227.51378174 -1262.65524292 1226.63244629 C-1263.76082238 1206.67638066 -1263.70648419 1186.70430348 -1263.69287109 1166.72460938 C-1263.69260422 1165.84712666 -1263.69233734 1164.96964394 -1263.69206238 1164.06557083 C-1263.68244969 1138.88216339 -1263.65686131 1113.73963918 -1261.69219971 1088.61785889 C-1261.48898217 1086.01466945 -1261.29375966 1083.41093676 -1261.09863281 1080.80712891 C-1254.07694902 988.26269206 -1237.21425779 896.5638229 -1208.50537109 808.22460938 C-1208.05481354 806.83390228 -1208.05481354 806.83390228 -1207.59515381 805.4151001 C-1194.6485659 765.53184222 -1179.69559229 726.47354136 -1162.50537109 688.22460938 C-1162.02277832 687.14518066 -1161.54018555 686.06575195 -1161.04296875 684.95361328 C-1147.38296761 654.54052117 -1132.70849395 624.26334634 -1115.82568359 595.50244141 C-1114.13938535 592.59320276 -1112.5329541 589.64419819 -1110.92773438 586.68969727 C-1095.24543851 557.89527773 -1077.27525089 530.07896166 -1058.50537109 503.22460938 C-1058.00585938 502.50901855 -1057.50634766 501.79342773 -1056.99169922 501.05615234 C-1053.52188615 496.09395868 -1050.02296298 491.15302996 -1046.50537109 486.22460938 C-1045.96879883 485.47260254 -1045.43222656 484.7205957 -1044.87939453 483.94580078 C-1038.36752093 474.83567814 -1031.77346899 465.81374535 -1024.87890625 456.98828125 C-1023.33429806 455.00494503 -1021.80048041 453.01350504 -1020.26708984 451.02148438 C-1009.17978613 436.64702935 -997.65943074 422.64769427 -985.87939453 408.83691406 C-984.43147088 407.13789348 -982.98796797 405.43517258 -981.54443359 403.73242188 C-975.88485374 397.07414623 -970.12254718 390.5398345 -964.17333984 384.13867188 C-962.16351972 381.9434657 -960.19583966 379.73026549 -958.24511719 377.48364258 C-945.98547636 363.45855205 -932.76777527 350.32645123 -919.5871582 337.17602539 C-917.05030639 334.64493213 -914.51805886 332.10928687 -911.98705387 329.57234859 C-910.0027067 327.5843662 -908.01595766 325.59879784 -906.02850151 323.61392403 C-904.64697777 322.23337262 -903.2674332 320.85084153 -901.88795471 319.46824646 C-897.46984666 315.06648582 -893.00224932 310.79182066 -888.25933838 306.74046326 C-885.14221081 304.04650769 -882.18244887 301.18326452 -879.19287109 298.34960938 C-873.99778425 293.45935607 -868.69184352 288.8203122 -863.11474609 284.36523438 C-860.32105594 282.07340473 -857.66328332 279.67229125 -855.00537109 277.22460938 C-850.19896389 272.81083825 -845.23427026 268.66100628 -840.15576172 264.56591797 C-838.25698309 263.02273901 -836.37281371 261.46270141 -834.48974609 259.90039062 C-826.57976282 253.33953582 -818.62251777 246.88839012 -810.42724609 240.68554688 C-808.15442871 238.9578361 -805.89249062 237.21630263 -803.63037109 235.47460938 C-793.46323497 227.66166224 -783.20288301 220.04266108 -772.66845703 212.73291016 C-770.40976225 211.15794217 -768.16369982 209.56615528 -765.91943359 207.97070312 C-752.35442005 198.35247836 -738.48169738 189.23012504 -724.50537109 180.22460938 C-723.62961426 179.65967773 -722.75385742 179.09474609 -721.8515625 178.51269531 C-709.26566739 170.4162123 -696.44316085 162.74400855 -683.50537109 155.22460938 C-682.63654297 154.71929687 -681.76771484 154.21398437 -680.87255859 153.69335938 C-666.90200614 145.58959481 -652.77158382 137.79514737 -638.50537109 130.22460938 C-637.91580627 129.91114563 -637.32624146 129.59768188 -636.71881104 129.27471924 C-562.72141475 89.96244937 -484.09981029 59.35808642 -194.42297363 0.48175049 C-191.65884263 0.23813549 -188.89606803 -0.01732025 -186.13330078 -0.27587891 C-124.98808657 -5.89025403 -61.14263686 -5.61183645 0 0 Z " fill="#CA2127" transform="translate(1290.50537109375,30.775390625)"/>
<path d="M0 0 C2.65717716 -0.00282089 5.31433945 -0.00834188 7.97151184 -0.01401138 C30.62918744 -0.04908823 53.10848949 0.64465742 75.70576477 2.30962753 C77.52961194 2.43715973 79.35349993 2.56411068 81.17744446 2.69024277 C85.48096698 2.99392923 89.7811692 3.32994336 94.08076477 3.68462753 C94.82395966 3.74521347 95.56715454 3.80579941 96.33287048 3.86822128 C118.70356852 5.70657955 141.23144093 7.75553317 163.31318665 11.86919785 C166.17537546 12.39607424 169.04181993 12.89593469 171.90888977 13.39556503 C177.9334404 14.44893738 183.95183921 15.53370408 189.96846008 16.63140488 C192.41210617 17.07486247 194.85674081 17.51291559 197.30244446 17.94488144 C257.90658218 28.67325087 318.17531791 47.02272303 374.70576477 71.30962753 C375.8942804 71.81784042 377.08279602 72.32605331 378.30732727 72.8496666 C406.70886063 85.07637065 434.65167476 98.673728 461.0929718 114.73199081 C463.625628 116.26123996 466.17494968 117.75711017 468.73310852 119.24322128 C498.06334087 136.37019464 525.80468075 156.6097674 551.60810852 178.68462753 C554.5105485 181.1607971 557.47817061 183.54923917 560.45576477 185.93462753 C564.69363002 189.37904631 568.56998016 193.02730376 572.34248352 196.97369003 C574.29187138 198.90052299 576.26968245 200.67824991 578.34638977 202.46197128 C583.38119104 206.83018664 588.06746355 211.52507175 592.76826477 216.24712753 C593.62742493 217.1024205 594.48658508 217.95771347 595.3717804 218.83892441 C599.80832816 223.2822507 604.10148215 227.78820233 608.19282532 232.55157089 C610.26600079 234.96062956 612.42423657 237.28770391 614.58076477 239.62212753 C619.50153779 245.02460273 624.13276967 250.61200334 628.70576477 256.30962753 C629.62965926 257.4416154 630.55416767 258.5731024 631.47920227 259.70415878 C679.40193181 318.57633217 717.30203126 390.53691947 734.09785461 464.79522324 C734.86845578 467.98254108 735.74728641 471.13592032 736.61592102 474.29790878 C738.86105911 482.58325948 740.58598848 490.94501746 742.20576477 499.37212753 C742.3560614 500.14931137 742.50635803 500.92649521 742.66120911 501.72723007 C746.64119716 522.42085218 749.29908802 543.21131312 751.33076477 564.18462753 C751.44194641 565.32705917 751.55312805 566.46949081 751.66767883 567.6465416 C752.05181566 571.86516667 752.38409384 576.08585347 752.70576477 580.30962753 C752.78834534 581.35138138 752.8709259 582.39313522 752.95600891 583.46645737 C754.64832701 605.29237223 755.02179738 627.02489326 754.96650696 648.90948105 C754.95510477 653.46251812 754.96191545 658.0153216 754.97337151 662.56835079 C755.03798188 692.7062147 753.60007761 722.41572727 750.08076477 752.37212753 C749.89201279 754.00353683 749.89201279 754.00353683 749.69944763 755.6679039 C746.97089472 779.05163406 743.11869216 802.19001236 738.70576477 825.30962753 C738.35215881 827.17772079 738.35215881 827.17772079 737.9914093 829.08355331 C736.69229575 835.85699546 735.25950669 842.59019818 733.70576477 849.30962753 C733.41201965 850.58048203 733.11827454 851.85133652 732.81562805 853.16070175 C729.20252451 868.69932109 725.46818156 884.17944407 720.62519836 899.38775253 C719.7330026 902.22306821 718.86592285 905.06535492 718.00460815 907.91018295 C703.81315951 954.73261442 685.61705481 999.58325509 663.70576477 1043.30962753 C663.20625305 1044.3112291 662.70674133 1045.31283066 662.1920929 1046.34478378 C648.24031063 1074.16918927 631.60828292 1100.86745888 613.70576477 1126.30962753 C613.28053528 1126.9164537 612.85530579 1127.52327988 612.41719055 1128.14849472 C606.4053773 1136.71434628 600.1606169 1145.07302283 593.70576477 1153.30962753 C593.03931946 1154.16040878 592.37287415 1155.01119003 591.68623352 1155.88775253 C587.51464612 1161.15533744 583.2074138 1166.29873502 578.84931946 1171.41192245 C575.8480715 1174.93781684 572.91836341 1178.51200475 570.01826477 1182.12212753 C566.82408182 1186.05080175 563.49522209 1189.68052026 559.82295227 1193.16509628 C558.02222343 1194.98908177 556.37343326 1196.84770988 554.70967102 1198.79400253 C550.16686226 1204.02487768 545.269012 1208.89637752 540.36323547 1213.78252792 C538.77117511 1215.369227 537.18453487 1216.96120495 535.5983429 1218.55376816 C530.13901507 1224.01666476 524.58682662 1229.29880682 518.70576477 1234.30962753 C517.09808104 1235.7640827 515.49336763 1237.22183648 513.89326477 1238.68462753 C508.64371987 1243.41481107 503.22140258 1247.89420281 497.70576477 1252.30962753 C497.19062317 1252.72438339 496.67548157 1253.13913925 496.14472961 1253.56646347 C475.1940763 1270.40554315 453.00377177 1285.89119536 429.70576477 1299.30962753 C429.10586731 1299.65767441 428.50596985 1300.00572128 427.88789368 1300.36431503 C423.19613511 1303.078576 418.46440435 1305.71455715 413.70576477 1308.30962753 C412.87609192 1308.76208847 412.04641907 1309.21454941 411.19160461 1309.68072128 C388.15349933 1322.15705348 364.39446666 1332.45222778 339.71846008 1341.22954941 C337.05539175 1342.18428315 334.40644121 1343.16817112 331.76045227 1344.16900253 C305.97792483 1353.7824581 278.76913187 1359.66747786 251.70576477 1364.30962753 C250.58750305 1364.5039537 249.46924133 1364.69827988 248.3170929 1364.89849472 C240.46955438 1366.23598418 232.60764369 1367.34606236 224.70576477 1368.30962753 C222.8698175 1368.5360997 222.8698175 1368.5360997 220.9967804 1368.76714706 C199.94851384 1371.22950737 178.94360826 1371.57579402 157.76826477 1371.55962753 C156.48420746 1371.55894272 155.20015015 1371.5582579 153.87718201 1371.55755234 C131.40045181 1371.51802397 109.33725461 1370.94946988 87.08076477 1367.68462753 C86.17532928 1367.55401932 85.2698938 1367.4234111 84.33702087 1367.28884506 C68.7868684 1365.02402461 53.75311708 1361.90892931 38.70576477 1357.30962753 C37.34330627 1356.90623154 37.34330627 1356.90623154 35.95332336 1356.49468613 C-3.44809917 1344.72823392 -39.43433425 1323.38067146 -73.37272644 1300.59536362 C-99.30720913 1283.24186494 -125.57405737 1266.42761789 -152.29423523 1250.30962753 C-155.02239136 1258.35589896 -156.61409206 1266.5733741 -158.16877747 1274.90432358 C-160.58397511 1287.82414159 -163.1827245 1300.6836328 -166.09648132 1313.50127792 C-167.91942891 1321.5414553 -169.59490931 1329.60468903 -171.23173523 1337.68462753 C-173.98940725 1351.21741181 -177.18463307 1364.62446286 -180.48905945 1378.03277206 C-181.65214476 1382.76622598 -182.78985494 1387.50553373 -183.91923523 1392.24712753 C-184.11783142 1393.07833115 -184.31642761 1393.90953476 -184.52104187 1394.76592636 C-185.55672311 1399.12294491 -186.56282259 1403.48517461 -187.53642273 1407.85650253 C-189.61442092 1417.1848899 -191.79272392 1426.43751851 -194.4214325 1435.62725449 C-195.98696124 1441.11788764 -197.38137709 1446.63751542 -198.73173523 1452.18462753 C-200.98247003 1461.36474086 -203.64356712 1470.3892391 -206.42070007 1479.42168808 C-207.3020301 1482.33539768 -208.15993982 1485.25552503 -209.01356506 1488.1774559 C-224.5429455 1541.31706631 -242.29532075 1593.90388005 -265.29423523 1644.30962753 C-265.77457214 1645.37036484 -266.25490906 1646.43110214 -266.74980164 1647.523983 C-277.25956939 1670.71382827 -288.47488515 1693.30524199 -301.29423523 1715.30962753 C-301.87689148 1716.31396835 -302.45954773 1717.31830917 -303.05986023 1718.35308456 C-315.80607428 1740.23985809 -329.76128336 1761.29697014 -345.29423523 1781.30962753 C-345.9852533 1782.20681503 -345.9852533 1782.20681503 -346.69023132 1783.12212753 C-356.21839809 1795.48443268 -366.24110843 1807.33898132 -376.86747742 1818.76958847 C-378.35281659 1820.37286012 -379.82834231 1821.98472197 -381.30204773 1823.59869003 C-389.23381123 1832.27251041 -397.24020746 1840.83682536 -406.18876648 1848.48150253 C-408.65150551 1850.61983624 -411.02910866 1852.84047352 -413.41923523 1855.05962753 C-418.17906957 1859.40958725 -423.13938852 1863.40291623 -428.24198914 1867.34160995 C-431.54936362 1869.90407619 -434.7182081 1872.53051883 -437.79423523 1875.37212753 C-441.57584205 1878.81060179 -445.58727676 1881.82895906 -449.73173523 1884.80962753 C-450.3479071 1885.25572372 -450.96407898 1885.70181992 -451.59892273 1886.16143417 C-456.04488717 1889.30962753 -456.04488717 1889.30962753 -458.29423523 1889.30962753 C-460.17656747 1875.32793522 -461.91835776 1861.35026597 -463.29423523 1847.30962753 C-463.40767273 1846.15366074 -463.52111023 1844.99769394 -463.63798523 1843.80669785 C-464.38950132 1836.12518576 -465.13693977 1828.443278 -465.86483765 1820.75948715 C-466.15324363 1817.73775482 -466.4567674 1814.7179762 -466.76916504 1811.6986351 C-468.07747527 1798.84973294 -468.88698017 1786.02575859 -469.39970398 1773.12212753 C-469.44145437 1772.10205612 -469.48320477 1771.08198471 -469.52622032 1770.03100204 C-470.41719531 1747.88894062 -470.63637771 1725.75860006 -470.60990906 1703.60064316 C-470.60526991 1699.40652385 -470.61226736 1695.21269417 -470.63041687 1691.01861191 C-470.80328179 1650.55721138 -468.87188293 1610.35233711 -464.48173523 1570.12212753 C-464.22050164 1567.67111875 -463.95927126 1565.22010963 -463.69804382 1562.76910019 C-458.22898539 1512.01633769 -450.41619081 1461.76045259 -439.84736633 1411.81702805 C-438.56055086 1405.69479282 -437.37948239 1399.55623432 -436.22782898 1393.40728378 C-434.71704841 1385.36482941 -433.02090091 1377.39202967 -431.10673523 1369.43462753 C-430.6552414 1367.53069007 -430.20377994 1365.62674474 -429.75332642 1363.72256088 C-429.43533944 1362.37839105 -429.11686355 1361.03433678 -428.7979126 1359.69039536 C-427.54758966 1354.41289801 -426.32980529 1349.12833497 -425.12236023 1343.84087753 C-421.52839712 1328.11286131 -417.8902287 1312.40040029 -413.98173523 1296.74712753 C-413.66857361 1295.48916367 -413.35541199 1294.2311998 -413.03276062 1292.93511581 C-411.23524016 1285.79975154 -409.28223886 1278.72444726 -407.23832703 1271.65606308 C-405.82108216 1266.63248527 -404.58730251 1261.56902002 -403.35673523 1256.49712753 C-401.4596664 1248.78394235 -399.42795207 1241.14724513 -397.12089539 1233.5474205 C-395.23270211 1227.26405927 -393.66266184 1220.91404688 -392.09867859 1214.54351425 C-390.63271718 1208.59550409 -389.02843253 1202.70312903 -387.31376648 1196.82134628 C-386.17189238 1192.88822439 -385.07332885 1188.94443145 -383.98173523 1184.99712753 C-381.67743648 1176.67844715 -379.35445368 1168.36508211 -377.02372742 1160.05376816 C-375.51028572 1154.6563159 -374.00081605 1149.25783252 -372.50126648 1143.85650253 C-369.79496615 1134.1236435 -367.05234184 1124.41055411 -364.10673523 1114.74712753 C-362.10898813 1108.19053587 -360.30646205 1101.61960829 -358.68974304 1094.95928574 C-357.38289558 1089.58721889 -355.89284265 1084.28284221 -354.35282898 1078.97369003 C-353.1833146 1074.92570298 -352.04606056 1070.86966315 -350.91923523 1066.80962753 C-350.71032654 1066.05705673 -350.50141785 1065.30448593 -350.28617859 1064.52910995 C-348.39155523 1057.68777131 -346.5291653 1050.83773355 -344.67021179 1043.98662949 C-343.30453732 1038.96712342 -341.91642059 1033.95494722 -340.49736023 1028.95025253 C-337.5396729 1018.51590401 -334.64384008 1008.11103285 -332.31376648 997.51665878 C-331.47949597 993.89550118 -330.45590977 990.33983836 -329.42314148 986.77056503 C-327.25585455 979.2611278 -325.30526636 971.70637544 -323.41923523 964.12212753 C-323.24715546 963.4326503 -323.07507568 962.74317307 -322.89778137 962.03280258 C-320.01742305 950.47346332 -317.3434899 938.87775246 -314.81767273 927.23540878 C-313.70439865 922.1165895 -312.53148546 917.01446935 -311.33329773 911.91509628 C-310.83667755 909.78398348 -310.34086331 907.65268471 -309.84529114 905.52132797 C-309.52257309 904.14294755 -309.19636364 902.76537935 -308.86647034 901.38869858 C-308.40741489 899.47129072 -307.96187757 897.55066182 -307.51689148 895.62994003 C-307.25658142 894.52924179 -306.99627136 893.42854355 -306.72807312 892.29449081 C-305.88750185 886.51124693 -307.83204969 883.06282991 -310.79423523 878.18462753 C-318.94170207 864.22570664 -325.00022607 849.93260283 -330.10673523 834.62212753 C-330.33752777 833.93355667 -330.56832031 833.24498581 -330.80610657 832.53554916 C-346.78284434 784.57534062 -351.82679063 731.49314413 -345.29423523 681.30962753 C-345.16532898 680.23873886 -345.03642273 679.16785019 -344.90361023 678.06451035 C-341.67004381 651.2603406 -336.5545036 625.03208573 -328.29423523 599.30962753 C-327.99291687 598.36458359 -327.69159851 597.41953964 -327.38114929 596.445858 C-315.57452006 559.87029495 -298.22120153 524.50741585 -274.29423523 494.30962753 C-273.22302429 492.95031113 -273.22302429 492.95031113 -272.13017273 491.56353378 C-260.85395719 477.51807097 -248.53057794 464.38233853 -234.29423523 453.30962753 C-233.74525574 452.87891953 -233.19627625 452.44821152 -232.63066101 452.00445175 C-209.19320928 433.7402202 -182.41921768 421.90619279 -153.29423523 416.30962753 C-152.13021179 416.08146347 -150.96618835 415.85329941 -149.76689148 415.61822128 C-130.17731289 412.40938997 -109.71092283 413.57880285 -90.29423523 417.30962753 C-89.59814148 417.43821152 -88.90204773 417.5667955 -88.18486023 417.69927597 C-47.84973304 425.3793656 -8.00704822 444.07791037 16.06513977 478.35650253 C23.69017775 489.56849921 28.61859313 501.43130893 32.70576477 514.30962753 C33.01256165 515.22744003 33.31935852 516.14525253 33.63545227 517.09087753 C34.47171742 519.81520523 35.11569694 522.52085458 35.70576477 525.30962753 C35.84111633 525.94030136 35.9764679 526.57097519 36.11592102 527.22076035 C41.58131647 554.04305016 39.85925243 583.44816825 35.70576477 610.30962753 C35.50708801 611.59836777 35.30841125 612.887108 35.10371399 614.21490097 C30.74831578 641.96239282 24.84236395 669.54691854 16.32441711 696.32818222 C15.40822358 699.26260478 14.59026716 702.22264425 13.76826477 705.18462753 C11.78590594 712.19338575 9.57130828 719.12368409 7.34272766 726.05718613 C5.85951528 730.67228291 4.40402358 735.29287058 2.99824524 739.93218613 C0.50088467 748.05754191 -2.17106055 756.12345501 -4.84511948 764.19207573 C-5.78327322 767.02333851 -6.71948606 769.85523696 -7.65522766 772.68729782 C-10.31429422 780.73408406 -12.97629009 788.77989936 -15.64042664 796.82500839 C-22.87406882 818.67272049 -30.0529462 840.5354735 -37.03251648 862.46587753 C-37.32469936 863.3829001 -37.61688225 864.29992268 -37.91791916 865.24473381 C-46.01114736 890.66882795 -52.65209647 916.33357372 -58.81254578 942.28582382 C-59.24933699 944.12098892 -59.69048258 945.95511626 -60.13212585 947.78911972 C-62.97771492 959.6107028 -65.38204774 971.40956016 -66.92997742 983.47637558 C-67.20500117 985.61555163 -67.5009567 987.7520512 -67.80693054 989.88702011 C-69.47401608 1002.04149593 -69.69560174 1014.11658193 -69.66923523 1026.37212753 C-69.66802673 1027.41143417 -69.66681824 1028.45074081 -69.66557312 1029.5215416 C-69.55338749 1065.05975873 -62.3075627 1097.39819321 -39.29423523 1125.30962753 C-38.73736023 1126.00829941 -38.18048523 1126.70697128 -37.60673523 1127.42681503 C-18.60367878 1150.6642482 12.54273361 1163.5571392 40.70576477 1171.30962753 C41.44745911 1171.51684433 42.18915344 1171.72406113 42.95332336 1171.93755722 C58.9520157 1176.31740217 75.25323802 1178.44894668 91.70576477 1180.30962753 C92.63848206 1180.41565292 93.57119934 1180.52167831 94.53218079 1180.6309166 C115.54220974 1182.78777358 136.91272251 1181.75308469 157.70576477 1178.30962753 C158.60971985 1178.1650914 159.51367493 1178.02055527 160.44502258 1177.87163925 C201.7128569 1171.1475587 240.96869355 1153.82330931 274.70576477 1129.30962753 C275.38510071 1128.81962265 276.06443665 1128.32961777 276.76435852 1127.82476425 C284.57156028 1122.17108533 292.05974102 1116.37569926 299.08076477 1109.75884628 C301.15198192 1107.82632671 303.25039342 1105.97165538 305.39717102 1104.12603378 C310.35008375 1099.80892872 315.00097563 1095.20630987 319.64326477 1090.55962753 C320.53134827 1089.67073837 321.41943176 1088.78184921 322.33442688 1087.86602402 C327.43296937 1082.71947531 332.28664681 1077.5705475 336.72920227 1071.84478378 C338.58753914 1069.46126475 340.53278589 1067.17673744 342.51704407 1064.8977623 C389.50299307 1010.676794 419.8732961 942.06037164 441.72822571 874.38772202 C443.18431404 869.88077246 444.70380374 865.39914798 446.24092102 860.91900253 C449.12413928 852.28073039 451.40846569 843.50953572 453.64326477 834.68462753 C453.85920288 833.83712936 454.07514099 832.9896312 454.29762268 832.11645126 C460.09620957 809.30725167 464.76256622 786.3948038 468.2702179 763.11822128 C468.71527934 760.24827347 469.19969535 757.38698737 469.69013977 754.52447128 C470.86615819 747.51651183 471.80012578 740.48200172 472.70576477 733.43462753 C472.83599533 732.42133377 472.83599533 732.42133377 472.96885681 731.38756943 C476.70323518 702.19167645 477.89510106 673.22815971 477.8910675 643.81914902 C477.89098637 640.69669411 477.89792636 637.57438632 477.91157532 634.45196152 C478.03043347 606.81371917 476.32784528 579.729675 472.70576477 552.30962753 C472.52972863 550.94768129 472.35395915 549.58570056 472.17842102 548.22369003 C469.80236481 529.8875202 466.88471073 511.9285316 462.3639679 493.97515488 C461.78756442 491.64089185 461.25460335 489.30531641 460.75263977 486.95415878 C451.54579346 444.09001183 433.98721983 401.46215955 410.70576477 364.30962753 C410.05994446 363.27451035 409.41412415 362.23939316 408.74873352 361.17290878 C400.72826693 348.79606244 392.01546485 336.34349928 381.86592102 325.61040878 C380.00353099 323.62677818 378.22428254 321.60396332 376.44795227 319.54400253 C372.72236803 315.26993916 368.78790543 311.24351087 364.76826477 307.24712753 C363.77149719 306.24455917 363.77149719 306.24455917 362.7545929 305.22173691 C358.23678023 300.71268818 353.55268138 296.46095417 348.70576477 292.30962753 C347.69664469 291.43202969 346.68752965 290.55442605 345.67842102 289.67681503 C336.94856787 282.20077972 327.91152491 275.18847796 318.70576477 268.30962753 C318.00354797 267.78111191 317.30133118 267.25259628 316.57783508 266.70806503 C297.08276109 252.08450837 276.28817095 239.58911148 254.70576477 228.30962753 C253.83838684 227.85136581 252.97100891 227.3931041 252.0773468 226.92095566 C220.10581525 210.1032502 185.69250916 197.20826314 150.70576477 188.30962753 C149.82388489 188.08468613 148.942005 187.85974472 148.03340149 187.62798691 C141.62355878 186.02279838 135.18162735 184.62129526 128.70576477 183.30962753 C127.52031067 183.06857285 126.33485657 182.82751816 125.11347961 182.57915878 C65.99609132 170.80796435 3.4442858 168.93260405 -56.29423523 177.30962753 C-57.51320496 177.47511093 -58.73217468 177.64059433 -59.98808289 177.81109238 C-67.12548787 178.80186559 -74.21306761 179.97745494 -81.29423523 181.30962753 C-82.29696472 181.49638046 -83.29969421 181.68313339 -84.33280945 181.8755455 C-138.57386128 192.09092942 -190.7006601 208.45587531 -240.62333679 232.05425644 C-243.13787939 233.23613743 -245.66240052 234.39235987 -248.19267273 235.54009628 C-260.074053 240.97380477 -271.37007593 247.28765049 -282.68193054 253.81402206 C-284.95519451 255.1155188 -287.23873192 256.39179374 -289.53642273 257.64947128 C-307.20955266 267.32962771 -324.00938784 278.46042742 -340.29423523 290.30962753 C-341.08491394 290.88245468 -341.87559265 291.45528183 -342.69023132 292.04546738 C-352.11583844 298.88416017 -361.37100416 305.82426308 -370.29423523 313.30962753 C-372.14754946 314.81068062 -374.00173255 316.31066153 -375.85673523 317.80962753 C-380.34127308 321.47647187 -384.66952287 325.28299095 -388.95048523 329.18462753 C-391.10116234 331.13457478 -393.28248494 333.03988882 -395.48173523 334.93462753 C-398.64394986 337.68493044 -401.59298115 340.58672924 -404.52861023 343.57525253 C-406.30647607 345.32165173 -408.14908918 346.94181993 -410.04423523 348.55962753 C-417.35585712 354.87743674 -424.15759284 361.81182904 -430.42704773 369.16119003 C-432.32214338 371.34173942 -434.27377359 373.46358043 -436.23930359 375.58062363 C-441.84949233 381.6285546 -447.13829414 387.86683173 -452.29423523 394.30962753 C-453.21663898 395.4404671 -454.13985719 396.57064268 -455.06376648 397.70025253 C-466.65930049 411.94311603 -477.36831274 426.85797132 -487.29423523 442.30962753 C-487.78359558 443.07049667 -488.27295593 443.83136581 -488.77714539 444.6152916 C-525.14950282 501.50161331 -549.02744083 564.09025004 -559.54423523 630.74712753 C-559.69521667 631.69039902 -559.84619812 632.6336705 -560.00175476 633.60552597 C-563.05990952 653.99552285 -563.72965523 674.38298305 -563.73149872 694.97011185 C-563.73165748 696.41471793 -563.73297002 697.85932431 -563.73538971 699.30392838 C-563.77582252 723.94067715 -562.33750596 747.97515724 -558.29423523 772.30962753 C-558.13414978 773.41765732 -557.97406433 774.5256871 -557.80912781 775.66729355 C-556.82641887 782.29177181 -555.19351996 788.27301522 -552.73173523 794.49712753 C-552.3794989 795.39931015 -552.02726257 796.30149277 -551.66435242 797.23101425 C-543.03059545 818.80779984 -530.14471405 838.22194621 -515.7976532 856.39312363 C-514.40336168 858.17051701 -513.03278443 859.96268806 -511.67314148 861.76665878 C-505.53469103 869.90310991 -498.99348546 877.63298669 -492.29423523 885.30962753 C-491.63423523 886.07146347 -490.97423523 886.83329941 -490.29423523 887.61822128 C-485.6951993 892.90924179 -480.99965724 898.11327064 -476.29423523 903.30962753 C-475.46021179 904.23775253 -474.62618835 905.16587753 -473.76689148 906.12212753 C-472.88903992 907.09150253 -472.01118835 908.06087753 -471.10673523 909.05962753 C-470.66128357 909.55760849 -470.21583191 910.05558945 -469.75688171 910.56866074 C-467.12919769 913.46209135 -464.41181451 916.13892095 -461.48173523 918.72759628 C-451.88225628 927.33435683 -451.88225628 927.33435683 -450.33720398 932.52447128 C-450.29096551 935.92510052 -450.69109861 938.96356387 -451.29423523 942.30962753 C-451.49414095 944.23941052 -451.693875 946.16921854 -451.88725281 948.0996666 C-452.59070274 954.58173471 -453.73389017 960.9832295 -454.98808289 967.37945175 C-456.0644816 972.91871558 -456.98340559 978.47655085 -457.88237 984.04717636 C-462.13824214 1010.31916916 -467.18555572 1036.47230776 -473.04423523 1062.43462753 C-473.31348816 1063.62886337 -473.58274109 1064.82309921 -473.8601532 1066.05352402 C-475.8084175 1074.52817399 -478.00962186 1082.92049204 -480.29423523 1091.30962753 C-487.82690746 1090.83945954 -494.83127559 1089.66936527 -502.10673523 1087.68462753 C-503.59161438 1087.28703232 -503.59161438 1087.28703232 -505.10649109 1086.88140488 C-515.61120221 1084.0238302 -525.98197881 1080.79470231 -536.29423523 1077.30962753 C-537.17369812 1077.01362656 -538.05316101 1076.71762558 -538.95927429 1076.41265488 C-584.07313546 1061.05668632 -626.55740124 1037.99188669 -662.29423523 1006.30962753 C-663.2507196 1005.46400253 -664.20720398 1004.61837753 -665.19267273 1003.74712753 C-677.40651267 992.74484813 -689.17587862 981.2879132 -699.29423523 968.30962753 C-700.19609615 967.21722787 -701.10124807 966.12753969 -702.00907898 965.04009628 C-728.10148309 933.56471955 -746.42645549 896.55882914 -760.29423523 858.30962753 C-760.70818542 857.19047958 -761.12213562 856.07133163 -761.54862976 854.91827011 C-775.90140984 815.64860557 -782.30004523 773.64852747 -785.04472351 732.11016464 C-785.22579128 730.07784724 -785.48877156 728.05230573 -785.80075073 726.03593063 C-786.25573713 722.60032684 -786.42722676 719.34976206 -786.4394989 715.88824081 C-786.44587875 714.65389297 -786.45225861 713.41954514 -786.45883179 712.14779282 C-786.46036493 710.80850896 -786.46147649 709.46922457 -786.46220398 708.12994003 C-786.46543083 706.71684361 -786.46879587 705.30374749 -786.47229004 703.8906517 C-786.47827267 700.91669576 -786.48013182 697.94276876 -786.47953796 694.96880722 C-786.47945811 691.99250649 -786.48616866 689.01636431 -786.50004578 686.04009628 C-786.62731411 658.26868178 -785.90811036 630.53174647 -781.98173523 602.99712753 C-781.76129372 601.39559622 -781.54108486 599.79403286 -781.3210907 598.19244003 C-776.79639699 565.68789293 -770.15517756 533.63432854 -760.29423523 502.30962753 C-759.93490906 501.16590683 -759.57558289 500.02218613 -759.20536804 498.84380722 C-750.20718625 470.47782008 -739.21325639 443.13166384 -726.29423523 416.30962753 C-725.7774823 415.23229355 -725.26072937 414.15495956 -724.72831726 413.0449791 C-716.99402918 397.00507971 -708.51164289 381.54224909 -699.29423523 366.30962753 C-698.74235535 365.3931041 -698.19047546 364.47658066 -697.62187195 363.53228378 C-679.88896236 334.16527937 -659.69025862 306.32091166 -637.43998718 280.20952988 C-634.4195822 276.66048854 -631.46729446 273.0647982 -628.54423523 269.43462753 C-625.56073786 265.76630604 -622.4818498 262.36268738 -619.07318115 259.0895195 C-617.31046503 257.32586597 -615.6921866 255.49672287 -614.07328796 253.6008873 C-610.36676151 249.3375857 -606.45373404 245.32445187 -602.45439148 241.33697128 C-601.72860397 240.61022705 -601.00281647 239.88348282 -600.2550354 239.13471603 C-598.73099967 237.61000457 -597.20571954 236.08653603 -595.679245 234.5642662 C-593.3629106 232.25328862 -591.05196445 229.93701983 -588.74150085 227.62017441 C-587.25028489 226.12961933 -585.7587587 224.63937453 -584.26689148 223.14947128 C-583.58643265 222.46698822 -582.90597382 221.78450516 -582.20489502 221.08134079 C-578.28108957 217.17634648 -574.25555831 213.44671339 -570.05882263 209.83610153 C-567.47242273 207.59871041 -564.98417313 205.26556969 -562.48173523 202.93462753 C-557.91473312 198.72009527 -553.23144161 194.7066614 -548.38798523 190.80962753 C-546.03791523 188.91058107 -543.70779901 186.99504057 -541.38798523 185.05962753 C-532.55304159 177.69785653 -523.58706027 170.58823676 -514.31132507 163.789608 C-512.31672968 162.32613217 -510.33085822 160.85135625 -508.34501648 159.37603378 C-486.82982622 143.50845296 -464.33211357 128.85754372 -441.29423523 115.30962753 C-440.46826843 114.82155624 -439.64230164 114.33348495 -438.79130554 113.83062363 C-373.32550334 75.29761371 -302.30994585 45.20262411 -225.29423523 26.30962753 C-223.02736092 25.74217282 -220.76152471 25.17083126 -218.49613953 24.59746933 C-216.67876074 24.14058408 -214.85971642 23.69033203 -213.04032898 23.2415123 C-210.57818152 22.62902424 -208.11881107 22.00524206 -205.66264343 21.36919785 C-196.30371473 18.96318049 -186.93569283 16.98840466 -177.41923523 15.30962753 C-176.70448029 15.18234268 -175.98972534 15.05505783 -175.25331116 14.92391586 C-170.91617825 14.15208621 -166.57694305 13.39325973 -162.23570251 12.64489365 C-160.48701275 12.3429177 -158.73897056 12.03719758 -156.99101257 11.73101425 C-134.25563842 7.79426515 -111.25765358 5.45099691 -88.29423523 3.30962753 C-86.90062775 3.1794725 -86.90062775 3.1794725 -85.47886658 3.04668808 C-57.01353847 0.43890574 -28.56352436 0.02769065 0 0 Z " fill="#FEFEFE" transform="translate(1213.2942352294922,412.690372467041)"/>
</svg>
